<svg width="57" height="46" xmlns="http://www.w3.org/2000/svg" xmlns:xlink="http://www.w3.org/1999/xlink" overflow="hidden"><defs><clipPath id="clip0"><rect x="77" y="88" width="57" height="46"/></clipPath></defs><g clip-path="url(#clip0)" transform="translate(-77 -88)"><path d="M77 96.3558C77 93.9502 78.9502 92 81.3558 92L127.644 92C130.05 92 132 93.9502 132 96.3558L132 96.6442C132 99.0498 130.05 101 127.644 101L81.3558 101C78.9502 101 77 99.0498 77 96.6442Z" fill="#8E0047" fill-rule="evenodd"/><path d="M77 112.356C77 109.95 78.9502 108 81.3558 108L127.644 108C130.05 108 132 109.95 132 112.356L132 112.644C132 115.05 130.05 117 127.644 117L81.3558 117C78.9502 117 77 115.05 77 112.644Z" fill="#8E0047" fill-rule="evenodd"/><path d="M77 128.356C77 125.95 78.9502 124 81.3558 124L127.644 124C130.05 124 132 125.95 132 128.356L132 128.644C132 131.05 130.05 133 127.644 133L81.3558 133C78.9502 133 77 131.05 77 128.644Z" fill="#8E0047" fill-rule="evenodd"/><path d="M79 92.3559C79 89.9502 80.9502 88 83.3559 88L128.644 88C131.05 88 133 89.9502 133 92.3559L133 92.6441C133 95.0498 131.05 97 128.644 97L83.3559 97C80.9502 97 79 95.0498 79 92.6441Z" fill="#EA7B74" fill-rule="evenodd"/><path d="M79 108.356C79 105.95 80.9502 104 83.3559 104L128.644 104C131.05 104 133 105.95 133 108.356L133 108.644C133 111.05 131.05 113 128.644 113L83.3559 113C80.9502 113 79 111.05 79 108.644Z" fill="#EA7B74" fill-rule="evenodd"/><path d="M79 124.356C79 121.95 80.9502 120 83.3559 120L128.644 120C131.05 120 133 121.95 133 124.356L133 124.644C133 127.05 131.05 129 128.644 129L83.3559 129C80.9502 129 79 127.05 79 124.644Z" fill="#EA7B74" fill-rule="evenodd"/></g></svg>